<?xml version="1.0" encoding="utf-8"?>
<!-- Generator: Adobe Illustrator 27.2.0, SVG Export Plug-In . SVG Version: 6.00 Build 0)  -->
<svg version="1.1" id="Layer_1" xmlns="http://www.w3.org/2000/svg" xmlns:xlink="http://www.w3.org/1999/xlink" x="0px" y="0px"
	 viewBox="0 0 28 28" style="enable-background:new 0 0 28 28;" xml:space="preserve">
<style type="text/css">
	.st0{fill:url(#SVGID_1_);}
	.st1{fill:url(#SVGID_00000109019898573007955750000017452276241074262934_);}
</style>
<g id="middle_00000061453299046610133700000009284778114702846374_">
	<linearGradient id="SVGID_1_" gradientUnits="userSpaceOnUse" x1="1.7819" y1="25.5922" x2="26.2419" y2="1.9715">
		<stop  offset="0" style="stop-color:#D4D190"/>
		<stop  offset="1" style="stop-color:#646345"/>
	</linearGradient>
	<path class="st0" d="M27.1,3.6c0,0.1-0.1,0.2-0.2,0.2c-0.3,0.2-0.5,0.5-0.7,0.7c-0.4,0.3-0.7,0.7-1.1,1c-0.4,0.4-1.1,1-2.2,2
		c-0.4,0.3-1,0.9-1.7,1.5c-0.6,0.6-0.6,0.6-1.8,1.8c-0.8,0.8-1.5,1.5-2.1,2.1c-0.7,0.7-0.8,0.8-1.3,1.3l0,0c-0.8,0.8-1.4,1.5-2,2.1
		c-1.1,1.1-1.7,1.7-2.1,2.1c-0.4,0.3-1,0.9-1.6,1.6c-0.6,0.6-0.5,0.6-1.7,1.8c-0.8,0.8-1.5,1.6-2.1,2.2c-0.2,0.2-0.3,0.4-0.5,0.5
		c-0.1,0.1-0.3,0.3-0.8,0.9c-0.2,0.2-0.3,0.4-0.5,0.6c-0.3,0.3-0.5,0.5-0.8,0.7c-0.2,0.1-0.3,0.2-0.4,0.2c-0.3,0.1-0.6-0.1-0.9-0.3
		c-0.2-0.1-0.5-0.4-0.7-0.7c-0.1-0.1-0.2-0.2-0.4-0.4c-0.4-0.4-0.5-0.6-0.5-0.7c0-0.1-0.1-0.3,0-0.4c0.1-0.2,0.2-0.3,0.4-0.5
		c0.2-0.2,0.1-0.1,0.4-0.5c0.3-0.3,0.3-0.3,0.9-0.9c0.1-0.1,0.3-0.3,0.3-0.3l0,0c0.1-0.2,0.2-0.2,0.5-0.6c0.9-0.9,1-1.1,1.7-1.8
		c0.6-0.6,0.6-0.6,1.5-1.5c0.3-0.3,0.5-0.5,1.1-1.1c0.1-0.1,0.4-0.4,0.8-0.8c1.4-1.5,1.7-1.7,2.1-2.1c0.2-0.2,0.4-0.4,0.5-0.5
		c0.3-0.4,1-1.1,2.7-2.8c0.2-0.2,0.4-0.4,0.6-0.5c0.6-0.5,0.9-0.9,1.7-1.7C16.8,8,16.9,8,17.8,7.2c0.3-0.3,0.5-0.5,1.1-1.1
		C19,6,19.3,5.7,19.7,5.3c1.5-1.4,1.8-1.6,2.2-2C22.2,3,22.2,3,22.4,2.8c0.5-0.5,0.5-0.4,0.8-0.8c0.5-0.5,0.5-0.6,0.7-0.7
		c0.1-0.1,0.5-0.2,0.8-0.1c0.2,0.1,0.3,0.2,0.5,0.3C26,2.2,26.3,2.3,26.9,3C27,3.2,27.2,3.4,27.1,3.6z"/>
</g>
<g id="middle_00000124862244692774746370000004833595372673710770_">
	
		<linearGradient id="SVGID_00000124122009793127442820000014811960636959656077_" gradientUnits="userSpaceOnUse" x1="2.014" y1="1.8523" x2="25.8883" y2="25.7266">
		<stop  offset="0" style="stop-color:#D6D392"/>
		<stop  offset="1" style="stop-color:#636244"/>
	</linearGradient>
	<path style="fill:url(#SVGID_00000124122009793127442820000014811960636959656077_);" d="M24.2,27c-0.1,0-0.2-0.1-0.2-0.2
		c-0.2-0.3-0.5-0.5-0.7-0.7c-0.3-0.4-0.7-0.7-1-1.1c-0.4-0.4-1-1.1-2-2.2c-0.3-0.4-0.9-1-1.5-1.7c-0.6-0.6-0.6-0.6-1.8-1.8
		c-0.8-0.8-1.5-1.5-2.1-2.1c-0.7-0.7-0.8-0.8-1.3-1.3l0,0c-0.8-0.8-1.5-1.4-2.1-2c-1.1-1.1-1.7-1.7-2.1-2.1c-0.3-0.4-0.9-1-1.6-1.6
		C7.2,9.5,7.3,9.6,6.1,8.5C5.2,7.7,4.5,7,3.9,6.4C3.7,6.2,3.5,6,3.4,5.9C3.3,5.8,3.1,5.6,2.5,5.1C2.3,4.9,2.2,4.8,2,4.6
		C1.6,4.3,1.4,4.1,1.2,3.8C1.1,3.6,1.1,3.5,1.1,3.4C1,3.1,1.2,2.8,1.4,2.5c0.1-0.2,0.4-0.5,0.7-0.7c0.1-0.1,0.2-0.2,0.4-0.4
		C2.9,1.1,3.1,1,3.2,1c0.1,0,0.3-0.1,0.4,0C3.9,1,3.9,1.1,4.2,1.3c0.2,0.2,0.1,0.1,0.5,0.4C4.9,2,5,2.1,5.6,2.7C5.6,2.7,5.9,3,5.9,3
		l0,0c0.2,0.1,0.2,0.2,0.6,0.5c0.9,0.9,1.1,1,1.8,1.7c0.6,0.6,0.6,0.6,1.5,1.5C10,7,10.2,7.2,10.8,7.8c0.1,0.1,0.4,0.4,0.8,0.8
		c1.5,1.4,1.7,1.7,2.1,2.1c0.2,0.2,0.4,0.4,0.5,0.5c0.4,0.3,1.1,1,2.8,2.7c0.2,0.2,0.4,0.4,0.5,0.6c0.5,0.6,0.9,0.9,1.7,1.7
		c0.6,0.6,0.6,0.7,1.4,1.6c0.3,0.3,0.5,0.5,1.1,1.1c0.1,0.1,0.4,0.4,0.8,0.8c1.4,1.5,1.6,1.8,2,2.2c0.2,0.2,0.2,0.2,0.5,0.5
		c0.5,0.5,0.4,0.5,0.8,0.8c0.5,0.5,0.6,0.5,0.7,0.7c0.1,0.1,0.2,0.5,0.1,0.8c-0.1,0.2-0.2,0.3-0.3,0.5c-0.7,0.7-0.8,1.1-1.5,1.6
		C24.6,26.9,24.4,27,24.2,27z"/>
</g>
</svg>
