<?xml version="1.0" encoding="utf-8"?>
<!-- Generator: Adobe Illustrator 27.2.0, SVG Export Plug-In . SVG Version: 6.00 Build 0)  -->
<svg version="1.1" id="Layer_1" xmlns="http://www.w3.org/2000/svg" xmlns:xlink="http://www.w3.org/1999/xlink" x="0px" y="0px"
	 viewBox="0 0 47.3 47.3" style="enable-background:new 0 0 47.3 47.3;" xml:space="preserve">
<style type="text/css">
	.st0{fill:#5E5C35;}
</style>
<g id="Layer_3">
	<path class="st0" d="M7.7,22.4c0,0,1.1,0,3.2,0c0.7,0,1.3-0.1,2.7-0.2c2-0.2,2.3-0.3,3.5-0.3c0.7,0,1.9-0.1,3.3,0
		c3.7-0.4,6.1-0.3,7.6-0.1c0.4,0,1.1,0.2,2.2,0.2c1.6,0.1,1.9,0,4.2,0.1c3.3,0.1,3,0.3,3.8,0.1c0.1,0,1.1-0.2,2.2,0
		c0.3,0.1,0.7,0.2,1,0.5c0.2,0.3,0.3,0.5,0.4,0.7c0,0.1,0.2,0.6,0,1c-0.2,0.5-0.6,0.7-0.8,0.8c-0.2,0.1-0.4,0.2-0.9,0.3
		c-0.7,0.1-1.2,0.1-1.8,0.1c-0.9,0-1.6-0.1-1.6-0.1c-1.1-0.1-2.2-0.2-3.3-0.3C31.3,25.1,30.4,25,30,25c-1.3,0-2.3,0-3,0.1
		c-1.8-0.1-3.3-0.2-4.5-0.1c-1.3,0-2.4,0.1-3.3,0.1c-1.4,0.1-2.4,0.2-3.8,0.3c-2.6,0.2-2.9,0.3-3.9,0.2c-0.8,0-1.1-0.1-1.8,0
		c-0.9,0.1-1.2,0.2-2.3,0.2c-0.9,0-1.3-0.1-1.6-0.3c-0.1-0.1-0.3-0.3-0.4-0.7c0-0.2,0-0.4,0.1-0.8c0-0.3,0.1-0.4,0.1-0.5
		c0.2-0.5,0.7-0.7,0.8-0.8C6.9,22.3,7.4,22.4,7.7,22.4z"/>
</g>
</svg>
