<?xml version="1.0" encoding="utf-8"?>
<!-- Generator: Adobe Illustrator 27.2.0, SVG Export Plug-In . SVG Version: 6.00 Build 0)  -->
<svg version="1.1" id="Layer_1" xmlns="http://www.w3.org/2000/svg" xmlns:xlink="http://www.w3.org/1999/xlink" x="0px" y="0px"
	 viewBox="0 0 47.3 47.3" style="enable-background:new 0 0 47.3 47.3;" xml:space="preserve">
<style type="text/css">
	.st0{fill:#5E5C35;}
</style>
<g id="middle">
	<path class="st0" d="M39.3,22c0,0-1.1,0-3.1,0c-0.7,0-1.3-0.1-2.6-0.3c-2-0.3-2.2-0.4-3.4-0.4c-0.7,0-1.9-0.1-3.2,0
		c-3.6-0.6-6-0.4-7.4-0.1c-0.4,0-1.1,0.3-2.2,0.3c-1.6,0.1-1.9,0-4.1,0.1c-3.2,0.1-2.9,0.4-3.7,0.1c-0.1,0-1.1-0.3-2.2,0
		c-0.3,0.1-0.7,0.3-1,0.7c-0.2,0.4-0.3,0.7-0.4,1c0,0.1-0.2,0.8,0,1.4c0.2,0.7,0.6,1,0.8,1.1C7,26,7.2,26.2,7.7,26.3
		c0.7,0.1,1.2,0.1,1.8,0.1c0.9,0,1.6-0.1,1.6-0.1c1.1-0.1,2.2-0.3,3.2-0.4c2.1-0.1,2.9-0.3,3.3-0.3c1.3,0,2.2,0,2.9,0.1
		c1.8-0.1,3.2-0.3,4.4-0.1c1.3,0,2.3,0.1,3.2,0.1c1.4,0.1,2.3,0.3,3.7,0.4c2.5,0.3,2.8,0.4,3.8,0.3c0.8,0,1.1-0.1,1.8,0
		c0.9,0.1,1.2,0.3,2.2,0.3c0.9,0,1.3-0.1,1.6-0.4c0.1-0.1,0.3-0.4,0.4-1c0-0.3,0-0.6-0.1-1.1c0-0.4-0.1-0.6-0.1-0.7
		c-0.2-0.7-0.7-1-0.8-1.1C40.1,21.9,39.6,22,39.3,22z"/>
</g>
<g id="top">
	<path class="st0" d="M8.1,12c0,0,1,0,3.1,0c0.7,0,1.3-0.1,2.6-0.3c1.9-0.3,2.2-0.3,3.4-0.4c0.7,0,1.8-0.1,3.2,0
		c3.6-0.6,6-0.4,7.5-0.1c0.4,0,1.1,0.3,2.1,0.3c1.5,0.1,1.9,0,4.1,0.1c3.3,0.1,3,0.4,3.7,0.1c0.1,0,1.1-0.3,2.1,0
		c0.3,0.1,0.7,0.3,1,0.7c0.2,0.3,0.3,0.7,0.4,1c0,0.1,0.2,0.8,0,1.4c-0.2,0.7-0.5,1-0.7,1.1c-0.2,0.1-0.4,0.3-0.9,0.4
		c-0.7,0.1-1.2,0.1-1.8,0.1c-0.9,0-1.6-0.1-1.6-0.1c-1.1-0.1-2.2-0.3-3.2-0.4c-1.7-0.3-2.6-0.3-3-0.3c-1.3,0-2.3,0-2.9,0.1
		c-1.8-0.1-3.3-0.3-4.4-0.3c-1.3,0-2.3,0.1-3.3,0.1c-1.3,0.1-2.4,0.1-3.8,0.3c-2.6,0.3-2.9,0.3-3.9,0.3c-0.7,0-1-0.1-1.8,0
		s-1.2,0.3-2.2,0.3c-0.9,0-1.3-0.1-1.6-0.4c-0.1-0.1-0.3-0.4-0.4-1c0-0.3,0-0.6,0.1-1.1c0-0.4,0.1-0.6,0.1-0.7
		c0.2-0.7,0.7-1,0.8-1.1C7.3,11.8,7.8,11.8,8.1,12z"/>
</g>
<g id="bottom">
	<path class="st0" d="M33.9,36.5c-0.8,0-1.8-0.1-3.8-0.1c-1.3,0-2.4,0-3.2,0c-3.6,0.6-6,0.4-7.5,0.1c-0.4,0-1.1-0.3-2.1-0.3
		c-1.5-0.1-1.9,0-4.1-0.1c-3.3-0.1-3-0.4-3.7-0.1c-0.1,0-1.1,0.3-2.1,0c-0.3-0.1-0.7-0.3-1-0.7c-0.2-0.3-0.3-0.7-0.4-1
		c0-0.1-0.2-0.8,0-1.4c0.2-0.7,0.5-1,0.7-1.1s0.4-0.3,0.9-0.4c0.7-0.1,1.2-0.1,1.8-0.1c0.9,0,1.6,0.1,1.6,0.1
		c1.1,0.1,2.2,0.3,3.2,0.4c1.7,0.3,2.6,0.3,3,0.3c1.3,0,2.3,0,2.9-0.1c1.8,0.1,3.3,0.3,4.4,0.3c1.3,0,1.4-0.1,3.3-0.1
		c3.2-0.1,3.4,0.1,5.8,0c2.3-0.1,3.4-0.2,3.9-0.3c0.5-0.1,1.4-0.3,2.6-0.1c0.4,0.1,0.7,0.2,0.9,0.3c0.2,0.4,0.3,0.9,0.4,1.6
		c0,0.6,0,1.1-0.1,1.5c-0.2,0.2-0.4,0.5-0.8,0.7c-0.8,0.5-1.5,0.6-1.9,0.6C36.9,36.7,35.3,36.5,33.9,36.5z"/>
</g>
</svg>
