<?xml version="1.0" encoding="UTF-8"?>
<svg id="Layer_1" data-name="Layer 1" xmlns="http://www.w3.org/2000/svg" xmlns:xlink="http://www.w3.org/1999/xlink" viewBox="0 0 182 55.92">
  <defs>
    <style>
      .cls-1 {
        stroke-miterlimit: 10;
      }

      .cls-1, .cls-2 {
        fill: #3f352b;
        stroke: #091d00;
      }

      .cls-3 {
        filter: url(#drop-shadow-1);
      }

      .cls-4 {
        filter: url(#drop-shadow-2);
      }
    </style>
    <filter id="drop-shadow-1" filterUnits="userSpaceOnUse">
      <feOffset dx="4" dy="4"/>
      <feGaussianBlur result="blur" stdDeviation="2"/>
      <feFlood flood-color="#000" flood-opacity=".68"/>
      <feComposite in2="blur" operator="in"/>
      <feComposite in="SourceGraphic"/>
    </filter>
    <filter id="drop-shadow-2" filterUnits="userSpaceOnUse">
      <feOffset dx="4" dy="4"/>
      <feGaussianBlur result="blur-2" stdDeviation="2"/>
      <feFlood flood-color="#000" flood-opacity=".68"/>
      <feComposite in2="blur-2" operator="in"/>
      <feComposite in="SourceGraphic"/>
    </filter>
  </defs>
  <g class="cls-3">
    <path class="cls-2" d="m23.77,21.93c0,.23-.04.45-.13.66-.09.21-.21.39-.37.54-.15.15-.34.28-.56.37-.22.09-.46.14-.71.14-.23,0-.46-.08-.69-.22-.22-.15-.44-.34-.65-.58-.34-.37-.54-.7-.6-.79-.12-.18-.48-.76-1.23-2.42-.17-.38-.26-.57-.31-.7-.18-.45-.47-1.29-.55-1.47,0-.01-.03-.06-.06-.13-.01-.03-.03-.08-.05-.15-.06.02-.16.06-.29.1-.68.21-1.04.12-1.65.24-.35.07-.22.09-.89.28-.31.09-.61.15-1.46.32-.52.1-1.07.2-1.64.3-.57.1-1.15.2-1.75.29-.59.1-1.19.2-1.79.3-.07,0-.12.03-.17.06-.05.03-.11.1-.2.22-.08.12-.21.3-.38.54-.17.24-.41.59-.72,1.04-.36.51-.69.96-1.01,1.34-.32.38-.62.7-.9.98-.27.27-.56.48-.86.62-.3.14-.62.21-.95.21-.43,0-.81-.05-1.15-.16-.34-.11-.62-.25-.85-.41-.23-.17-.4-.35-.52-.55-.12-.2-.18-.38-.18-.55s.04-.32.12-.44c.1-.14.24-.21.28-.23.58-.27,1.08-.68,1.64-.98.53-.28.57-.55,1.85-2.45.3-.45.75-1.1,1.31-1.89h0c.14-.19.34-.5.6-.87,1.59-2.33,2.34-3.24,2.98-4.16,1.03-1.5.5-1.2,2.63-5.22,0,0,2.02-3.83,3.5-4.01.41-.05.84.08.84.08.22.05.38.14.5.27.12.13.2.29.24.5.04.21.06.46.06.77v.68c0,.29-.02.31-.01.43,0,.19.03.47.14.81.1.38.25.9.46,1.53.4,1.23.64,1.69,1.29,3.48.21.59.37,1.04.55,1.54.36,1.04.56,1.64.96,2.77.1.29.19.52.24.66.14.42.53,1.56,1.03,2.6.25.53.45.88.65,1.17.18.27.19.27.45.62.65.88.97,1.53.97,1.94Zm-9.38-7.08c.41-.1.83-.21,1.26-.32.43-.11.82-.22,1.19-.34-.15-.46-.3-.94-.46-1.43-.16-.5-.33-.99-.5-1.48-.17-.49-.35-.97-.53-1.43-.18-.46-.37-.89-.56-1.27-.8,1.09-1.59,2.23-2.39,3.43-.8,1.2-1.56,2.42-2.28,3.67.28-.03.58-.05.88-.06s.56-.05.74-.11c.25-.07.48-.14.68-.2.2-.06.4-.11.6-.15.2-.05.41-.09.62-.14.22-.05.46-.1.74-.15Z"/>
    <path class="cls-2" d="m153.93,11.88c-.13-.19-.3-.35-.51-.46s-.43-.21-.67-.26c-.24-.05-.47-.08-.69-.08-.71,0-1.39.14-2.06.41-.66.28-1.29.66-1.89,1.15-.6.49-1.16,1.08-1.67,1.77-.51.69-.98,1.44-1.4,2.26.02-.04.04-.15.07-.33.03-.18.06-.4.08-.66.03-.26.06-.54.1-.85.03-.31.06-.61.08-.89.02-.29.04-.54.06-.77.01-.23.02-.4.02-.5,0-.23-.04-.45-.11-.66-.08-.21-.19-.4-.33-.57-.14-.17-.33-.31-.54-.41-.11-.05-.23-.09-.35-.12,0-.05.01-.1.01-.15,0-.12-.03-.22-.09-.29-.06-.08-.13-.14-.22-.18-.09-.05-.17-.08-.26-.1-.09-.02-.16-.03-.22-.03-.34,0-.68.19-1.04.56-.35.37-.75.83-1.18,1.39-.3.39-.62.8-.96,1.22-.35.43-.7.86-1.07,1.28s-.74.82-1.12,1.2c-.38.38-.76.71-1.13,1.01-.37.29-.74.52-1.09.7-.35.17-.69.26-1.01.26-.42,0-.74-.23-.97-.71-.23-.47-.35-1.12-.35-1.95,0-.47.03-1,.1-1.58.07-.58.15-1.13.24-1.67.1-.54.19-1.03.27-1.46.09-.43.15-.74.19-.93-.02-.35-.14-.64-.36-.88-.23-.24-.55-.36-.97-.36-.14,0-.29.03-.45.09-.15.06-.3.13-.44.23-.13.09-.25.19-.35.29-.11.11-.17.21-.21.3-.06.14-.11.27-.14.38-.04.12-.07.22-.09.33-.02.1-.05.2-.07.3-.02.1-.05.21-.08.35-.04.15-.1.35-.18.59-.09.25-.18.51-.28.78-.1.27-.21.53-.32.78-.12.25-.21.45-.3.6-.16.29-.37.63-.65,1.03-.27.39-.57.79-.88,1.2-.32.41-.64.8-.98,1.16-.33.36-.64.67-.92.9-.23.2-.48.39-.74.58-.25.19-.52.36-.79.51-.27.15-.55.27-.83.36-.29.1-.58.14-.88.14-.22,0-.39-.12-.52-.34-.13-.23-.2-.54-.2-.93,0-.78.06-1.51.19-2.18.12-.68.26-1.28.41-1.8.15-.53.29-.97.42-1.32.12-.35.19-.6.19-.74,0-.18-.02-.36-.07-.55-.04-.19-.12-.36-.24-.51-.12-.15-.27-.27-.47-.37-.19-.1-.43-.15-.72-.15-.23,0-.41.05-.57.12-.07.03-.13.07-.19.12-.02-.02-.05-.04-.07-.06-.1-.06-.21-.1-.33-.12-.12-.02-.24-.03-.35-.03-.32,0-.62.01-.89.05-.28.03-.56.07-.85.12-.29.05-.6.1-.94.15-.35.06-.74.11-1.19.15-.8.08-1.58.15-2.35.24-.77.09-1.56.12-2.36.12,0-.04,0-.12,0-.23,0-.11.01-.18.02-.22.06-.34.12-.65.15-.93.04-.28.09-.58.15-.92.07-.33.15-.71.26-1.16.11-.44.26-.99.47-1.64.11-.32.19-.62.24-.91.06-.29.09-.56.09-.79,0-.5-.12-.88-.34-1.13-.23-.25-.59-.37-1.1-.37-.22,0-.42.07-.62.21-.2.14-.38.33-.54.58-.16.24-.31.54-.44.88-.13.34-.25.71-.35,1.1-.02.09-.06.27-.13.57-.07.29-.15.61-.23.96-.09.35-.17.69-.24,1.01-.08.32-.14.56-.18.7-.06.2-.12.43-.2.7-.08.27-.15.55-.22.81-.07.27-.13.52-.19.75-.06.23-.1.39-.12.49-.15.02-.39.04-.74.08-.34.03-.7.06-1.06.09s-.7.06-1,.08c-.31.02-.49.04-.57.04-.27,0-.57.02-.89.06-.32.04-.71.07-1.17.08,0,.57.05,1.03.13,1.39.09.35.24.62.45.81.21.19.48.32.82.38.14.03.29.05.46.06-.45.45-.9.88-1.36,1.28-.59.54-1.16,1-1.73,1.4-.56.4-1.1.72-1.61.95-.51.23-.98.35-1.41.35-.29,0-.53-.1-.73-.3-.2-.2-.35-.46-.48-.77-.12-.32-.21-.66-.27-1.05-.06-.39-.11-.76-.15-1.13-.06-.71-.15-1.37-.26-1.97-.12-.6-.28-1.13-.51-1.57-.23-.44-.54-.79-.92-1.03-.38-.25-.88-.37-1.49-.37-.51,0-.98.08-1.39.23-.41.15-.79.36-1.15.63-.35.27-.69.58-1,.95-.32.36-.64.75-.97,1.16-.25.32-.51.66-.76,1.01-.25.35-.5.7-.75,1.05-.24.35-.47.66-.7.95-.22.3-.41.54-.58.74.02-.22.07-.48.14-.8.08-.32.16-.64.24-.97.09-.34.18-.66.27-.96.09-.31.16-.56.21-.76.07-.3.14-.57.22-.8.07-.23.14-.46.2-.67.07-.21.12-.42.16-.61.03-.2.05-.4.05-.62,0-.24-.03-.46-.09-.65-.06-.19-.14-.35-.24-.47-.1-.13-.22-.23-.35-.3-.13-.07-.27-.11-.41-.11-.16,0-.32,0-.48.03-.16.02-.31.06-.46.12-.14.07-.29.16-.43.3-.14.13-.27.31-.38.53-.2.4-.37.84-.52,1.31-.05.16-.1.33-.14.49-.33.03-.74.25-1.24.66l-.75.73c-.34.33-.65.62-.95.89-.3.27-.6.54-.9.82-.44.42-.88.83-1.3,1.22-.43.39-.78.69-1.05.89-.44.34-.87.66-1.3.97-.43.32-.87.58-1.31.78-.5.23-1.01.43-1.51.58-.5.15-.97.23-1.41.23-.33,0-.61-.03-.85-.11-.24-.07-.44-.18-.61-.32-.17-.14-.31-.32-.42-.53-.11-.21-.2-.46-.28-.75.52-.4,1.02-.78,1.48-1.12.46-.35.84-.66,1.15-.95.5-.48.98-.93,1.42-1.38.44-.44.82-.9,1.14-1.37.33-.47.58-.98.77-1.52.19-.54.28-1.15.28-1.83,0-.43-.08-.81-.23-1.16-.15-.35-.37-.7-.68-1.09-.09-.12-.22-.23-.36-.34-.15-.1-.3-.19-.47-.26-.16-.08-.32-.13-.47-.18-.16-.04-.29-.06-.39-.06-.57,0-1.16.14-1.77.42-.62.28-1.19.69-1.73,1.24-.69.7-1.26,1.43-1.71,2.18s-.8,1.51-1.06,2.25c-.26.74-.44,1.48-.54,2.2-.06.43-.1.85-.12,1.25-.18.08-.38.18-.6.3-.17.08-.36.16-.59.24-.23.08-.46.15-.7.2-.24.06-.49.1-.73.13-.25.03-.48.05-.71.05-.28,0-.58-.09-.88-.26-.31-.17-.59-.42-.84-.74-.26-.32-.47-.71-.64-1.16-.17-.46-.25-.96-.26-1.52,0-.34-.06-.61-.16-.83-.1-.22-.22-.4-.37-.54-.15-.13-.31-.23-.47-.28-.17-.05-.33-.08-.48-.08-.47,0-.86.14-1.16.43-.3.29-.49.65-.57,1.07-.07.29-.17.62-.3,1-.13.37-.29.75-.45,1.13-.16.38-.33.74-.5,1.09-.17.35-.32.66-.45.91-.11.22-.26.48-.44.8-.18.31-.37.64-.57.97-.2.33-.39.65-.58.95-.19.3-.36.54-.5.73-.07-.29-.15-.63-.27-1.03-.11-.39-.23-.81-.36-1.25-.13-.44-.26-.9-.4-1.37-.14-.46-.26-.93-.37-1.38-.11-.45-.2-.87-.26-1.28-.07-.4-.11-.76-.11-1.08,0-.26.04-.52.12-.79.08-.26.12-.53.12-.8,0-.22-.03-.42-.08-.62-.05-.2-.13-.36-.26-.51-.12-.14-.27-.26-.46-.35-.19-.08-.42-.12-.7-.12-.5,0-.93.11-1.27.33-.01-.04-.03-.08-.06-.12-.04-.06-.1-.09-.18-.09-.02,0-.07,0-.14.01-.08,0-.15.02-.24.04-.09.02-.17.04-.24.06-.08.02-.13.05-.16.08-.4.4-.86.87-1.36,1.4-.51.53-1.03,1.07-1.56,1.63-.19.2-.41.43-.66.69-.25.26-.52.53-.8.8-.28.27-.57.54-.87.8-.3.26-.59.49-.88.7-.29.2-.57.36-.84.49-.26.13-.5.19-.72.19-.13,0-.25-.1-.36-.3-.11-.2-.2-.44-.27-.73-.08-.3-.14-.62-.19-.98-.05-.35-.09-.7-.12-1.01-.03-.32-.06-.59-.07-.83-.01-.24-.02-.39-.02-.45,0-.64.03-1.28.08-1.91.06-.63.14-1.3.25-2.04.19-1.24.36-2.32.52-3.24.16-.92.29-1.68.4-2.31.12-.63.2-1.13.27-1.5.07-.37.1-.63.1-.78,0-.35-.25-.63-.75-.82-.16-.08-.31-.13-.45-.16-.14-.03-.3-.05-.48-.05-.4,0-.73.06-.98.2-.24.13-.44.32-.57.56-.07.11-.13.34-.19.69-.06.35-.12.74-.17,1.19-.05.45-.1.9-.14,1.38-.04.47-.08.89-.12,1.26-.03.35-.06.72-.11,1.13-.04.4-.09.81-.12,1.21-.04.4-.09.79-.13,1.15-.05.36-.1.68-.14.95-.07-.34-.17-.67-.3-.99-.12-.32-.27-.6-.44-.85-.17-.25-.35-.45-.56-.6-.21-.15-.44-.23-.69-.23-.66,0-1.25.05-1.74.15-.5.1-.93.24-1.3.43-.3.15-.61.35-.93.62-.32.27-.63.56-.93.86-.3.31-.59.63-.86.95-.27.33-.5.63-.7.92-.71.99-1.32,2-1.82,3.04-.5,1.04-.94,2.12-1.32,3.26-.08.22-.13.48-.18.8-.04.32-.06.7-.06,1.14,0,.32.04.66.12,1.01.09.35.22.68.39.97.18.3.41.54.68.73.28.19.6.29.98.29,1.06,0,2.09-.21,3.07-.64.99-.43,1.94-1.07,2.87-1.93.35-.33.72-.69,1.09-1.09.37-.4.73-.82,1.07-1.25.35-.43.67-.86.95-1.3.29-.44.53-.84.72-1.21.02.45.06.94.12,1.47.07.53.18,1.04.35,1.53.16.49.38.94.65,1.34.27.4.62.7,1.04.9.3.15.61.23.93.23.43,0,.88-.11,1.33-.32.46-.21.9-.47,1.34-.78.43-.31.84-.64,1.23-.99.39-.35.74-.67,1.05-.94.29-.27.6-.58.93-.93.34-.35.67-.72.99-1.1.33-.38.64-.77.94-1.16.23-.31.45-.6.64-.89.05.48.12,1.02.24,1.6.19.99.53,2.13,1.02,3.43.45,1.21.76,2.22.92,3.04.16.82.25,1.5.26,2.03.05.14.13.28.25.42.12.13.25.26.41.36.15.11.32.2.48.27.17.07.32.11.46.11.11,0,.25-.02.44-.05.19-.03.4-.1.63-.2.23-.11.48-.24.73-.43.25-.19.5-.43.73-.74.18-.23.39-.51.64-.86.25-.35.51-.74.8-1.16.28-.42.56-.86.83-1.33.27-.46.53-.92.77-1.37.08-.16.17-.33.26-.51l.26-.55c.08-.18.16-.36.23-.55.06-.18.11-.35.14-.51.08.52.25.98.53,1.36.28.38.6.7.98.95.37.25.77.43,1.18.56.41.12.79.18,1.14.18.56,0,1.12-.06,1.68-.18.56-.12,1.09-.3,1.6-.56.2-.11.39-.23.58-.36.06.39.14.76.25,1.1.22.67.54,1.24.97,1.7.43.46.97.81,1.63,1.06.66.24,1.42.36,2.3.36.7,0,1.42-.15,2.19-.44.77-.3,1.54-.69,2.31-1.17.77-.48,1.54-1.05,2.29-1.68.75-.63,1.46-1.28,2.12-1.97.66-.68,1.27-1.36,1.81-2.04.28-.35.53-.68.76-1l-.03.17c-.07.48-.13.95-.19,1.39-.11.98-.17,1.73-.17,2.23,0,1.99.59,3.12,1.77,3.38.3-.11.63-.29.98-.57.35-.28.7-.59,1.06-.95.35-.36.7-.74,1.02-1.13.32-.39.59-.75.82-1.07.66-.93,1.18-1.67,1.59-2.22.41-.56.75-.98,1.01-1.27.27-.29.49-.48.67-.57.18-.09.36-.13.55-.13.22,0,.4.26.55.78.15.52.29,1.22.41,2.11.09.66.2,1.28.36,1.89.15.6.37,1.14.67,1.61.29.47.67.84,1.13,1.13.46.28,1.05.42,1.75.42.43,0,.82-.04,1.18-.13.36-.08.7-.2,1.03-.35.32-.15.64-.32.94-.51.31-.19.62-.4.95-.62.42-.28.84-.61,1.27-.99.42-.38.83-.77,1.23-1.18.4-.41.79-.83,1.16-1.25.37-.42.7-.82,1.01-1.19.1-.12.21-.27.33-.46.09-.14.17-.28.25-.44.23-.01.4-.02.52-.02,0,.08-.03.21-.05.41-.02.2-.07.51-.14.93-.08.43-.19.99-.35,1.7-.16.7-.38,1.61-.67,2.7-.1.35-.16.69-.19,1.03-.03.34-.05.58-.05.74s.02.36.06.59c.04.24.11.49.19.77.08.27.19.55.32.82.12.28.27.53.44.75.17.22.36.4.57.53.21.13.44.2.7.2.24,0,.46-.06.66-.19.2-.12.36-.28.51-.47.14-.19.25-.39.33-.6.08-.21.12-.4.12-.58,0-.06,0-.15-.03-.29-.02-.14-.05-.28-.08-.45-.03-.16-.07-.32-.11-.47-.04-.16-.08-.29-.12-.38-.03-.1-.05-.18-.08-.25-.02-.07-.05-.14-.07-.22-.02-.08-.04-.16-.05-.24,0-.09-.01-.2-.01-.32,0-.17.04-.5.13-.98.09-.49.2-1.06.35-1.72.14-.65.3-1.36.47-2.11.17-.75.35-1.48.51-2.18.3-.13.8-.23,1.5-.31.7-.07,1.57-.19,2.62-.34.29-.05.65-.11,1.06-.18.42-.07.85-.16,1.31-.26.46-.11.91-.23,1.36-.36.42-.13.81-.27,1.15-.43-.05.16-.11.32-.15.48-.12.43-.23.86-.32,1.29-.09.43-.16.85-.23,1.25-.06.4-.11.75-.14,1.07-.03.32-.06.58-.07.8-.01.22-.02.35-.02.39,0,.47.03.97.09,1.47.06.51.2.97.43,1.39.23.42.56.76,1.01,1.03.45.26,1.05.4,1.82.4.59-.03,1.14-.14,1.66-.33.51-.19.98-.41,1.41-.67.43-.26.81-.53,1.14-.8.33-.28.61-.51.83-.71.25-.22.51-.47.77-.76.25-.29.5-.59.74-.9.24-.31.46-.61.67-.92.21-.3.39-.58.54-.82,0,.81.09,1.51.27,2.08.19.58.44,1.04.77,1.4.33.37.71.63,1.16.8.45.16.93.24,1.47.24s1.08-.13,1.66-.41c.58-.27,1.16-.64,1.76-1.1.59-.46,1.19-1,1.78-1.62.59-.62,1.16-1.27,1.69-1.96.25-.32.49-.64.72-.97,0,.26.01.53.02.8.01.46.03.91.04,1.32.01.41.02.74.02.98,0,.33-.02.71-.05,1.15-.03.44-.07.87-.11,1.29-.04.43-.07.83-.11,1.2-.03.37-.05.66-.05.86s0,.43.03.71c.02.29.08.58.17.85.1.28.24.52.45.72.2.2.48.3.85.3.28,0,.52-.04.72-.12.2-.07.38-.2.54-.38.02-.02.04-.04.06-.08s.05-.07.08-.12c.04-.05.07-.1.1-.17.13-.82.3-1.6.51-2.32.21-.72.47-1.41.76-2.05.29-.64.64-1.24,1.03-1.81.39-.57.84-1.1,1.33-1.61.38-.38.73-.7,1.05-.93.31-.23.61-.42.9-.57.29-.14.57-.25.86-.33.28-.08.58-.16.89-.23.7-.16,1.21-.35,1.52-.57.31-.22.47-.49.47-.81,0-.28-.07-.51-.2-.7Zm-118.06,2.78c-.14.22-.27.41-.4.58-.19.24-.45.56-.78.95-.33.39-.76.85-1.28,1.39-.25.26-.56.54-.93.82-.36.29-.73.55-1.1.78-.37.23-.71.43-1.04.58-.32.15-.58.23-.76.23-.21,0-.31-.29-.31-.87,0-.35.05-.72.15-1.12.1-.4.27-.88.51-1.42.14-.31.33-.68.57-1.11.24-.43.51-.89.81-1.38.27-.44.58-.9.94-1.37.35-.47.7-.9,1.05-1.28.35-.39.66-.71.94-.96.28-.25.5-.38.64-.38.11,0,.22.07.34.2.12.13.24.29.35.47.11.18.2.37.27.57.08.2.12.36.12.49,0,.12,0,.26-.03.41s-.03.34-.03.54c0,.27.03.5.1.68.06.18.16.34.28.49-.12.25-.25.49-.38.7Zm35.34-.21c.12-.44.26-.88.43-1.3.17-.42.36-.82.57-1.2.2-.38.4-.71.6-1,.2-.29.4-.51.58-.68.19-.17.35-.25.49-.25.16,0,.3.08.43.25.12.17.19.46.19.87,0,.26-.08.55-.23.86-.15.31-.35.62-.57.93-.23.31-.46.61-.71.89-.25.29-.47.53-.67.72-.2.21-.4.4-.62.58-.22.18-.46.38-.74.61.05-.41.13-.84.25-1.28Z"/>
    <path class="cls-1" d="m181.13,17.61c-.52-1.17-1.51-1.99-2.4-2.4-.7-.32-1.18-.31-2.88-.96-.41-.15-.74-.29-.96-.39-.03-.13-.06-.33,0-.57.17-.68.91-.94.96-.96.65-.22.9.2,1.44,0,.59-.22.89-.95.96-1.44.09-.61-.09-1.39-.69-1.84-.44-.33-.93-.35-1.09-.35-.29,0-.6.09-.94.25-.34.17-.67.4-1,.69-.33.29-.65.62-.96,1-.31.37-.58.77-.82,1.19-.23.4-.41.81-.55,1.21-.29.09-.62.3-.99.63l-.75.74c-.6.6-1.22,1.18-1.86,1.76-.64.58-1.31,1.11-2,1.61-.39.28-.83.55-1.31.81-.47.26-.97.48-1.47.69-.51.2-1.02.35-1.53.47-.51.12-1,.17-1.46.17-.36,0-.68-.04-.96-.13-.28-.09-.52-.21-.72-.36-.11-.09-.42-.33-.48-.54-.16-.58,1.46-1.34,3.28-2.72,1.91-1.45,2.66-2.54,2.88-2.88.82-1.25.93-2.1.96-2.4.05-.51.15-1.54-.48-2.4-.96-1.32-2.88-1.2-3.4-1.17-.17.01-1.03.07-2,.57-.76.39-1.22.85-1.61,1.25-1.49,1.52-2.08,3.2-2.35,3.97-.09.25-.36,1.03-.51,2.09-.11.71-.16,1.43-.16,2.16,0,1.83.45,3.19,1.34,4.09.9.91,2.14,1.36,3.74,1.36.71,0,1.44-.11,2.19-.33.74-.22,1.49-.52,2.24-.91.75-.38,1.49-.84,2.22-1.37.73-.53,1.43-1.1,2.1-1.72.35-.32.81-.74,1.34-1.32.27-.29.35-.44.57-.64.51-.48,1.08-.71,1.48-.83.11,0,.28,0,.48,0,1.24.06,2.78.61,3.83,1.92.64.79.86,1.57.96,1.92.23.83.46,1.67,0,2.4-.57.9-1.78.96-1.92.96-.79.02-1.36-.33-1.57-.48h-.25c-.24,0-.46.04-.65.13-.19.09-.35.21-.48.36-.13.15-.23.33-.3.53-.07.2-.11.42-.11.64,0,.46.13.84.39,1.11.26.28.68.42,1.25.42.45,0,.61-.11,1.18-.22.71-.14,1.05-.07,1.5-.11,1.49-.11,2.63-1.21,2.88-1.44.94-.91,1.28-1.91,1.44-2.4.21-.66.72-2.22,0-3.83Zm-22.26-4.24c.26-.71.55-1.31.88-1.81.33-.5.67-.89,1.03-1.16.36-.27.7-.41,1.02-.41.09.05.16.16.2.35.04.19.06.38.06.59,0,.49-.11.95-.34,1.39-.23.44-.53.85-.89,1.24-.36.39-.76.77-1.21,1.13-.45.36-.89.7-1.33,1.03.12-.86.31-1.64.57-2.35Z"/>
  </g>
  <g class="cls-4">
    <path class="cls-2" d="m115.58,37.39c-.43-.31-1.04-.47-1.82-.47-.71,0-1.4.15-2.09.45-.69.29-1.34.67-1.96,1.13-.36.26-.71.54-1.03.84-.01-.05-.03-.1-.06-.14-.44.2-.84.35-1.2.46-.36.11-.71.19-1.04.25-.33.05-.65.08-.98.09-.32,0-.67,0-1.04,0-.35,0-.75-.05-1.19-.15-.44-.09-.86-.21-1.26-.33-.4-.13-.74-.26-1.03-.39s-.47-.22-.53-.29l-.26-.28c-.18-.21-.35-.4-.51-.57-.16-.18-.33-.32-.51-.44-.17-.12-.36-.21-.57-.27-.21-.07-.46-.1-.74-.1-.34,0-.7.07-1.07.21s-.73.32-1.1.55c-.36.24-.7.5-1.03.79-.32.29-.61.59-.86.9-.44.53-.85,1.07-1.24,1.61-.21.3-.41.6-.6.9-.05.04-.09.08-.14.12-.11.1-.2.2-.29.31-.08.11-.16.21-.24.31-.15.2-.35.45-.6.73-.24.28-.52.57-.83.86-.3.3-.64.6-.99.89-.35.29-.72.55-1.09.78s-.74.41-1.1.56c-.37.14-.72.21-1.06.21s-.64-.08-.88-.23c-.25-.16-.45-.37-.6-.66-.16-.28-.27-.62-.34-1.01-.07-.4-.1-.85-.1-1.34,0-.64.03-1.31.1-2s.16-1.38.27-2.08c.11-.7.23-1.39.37-2.07.13-.68.27-1.33.4-1.95.14-.62.26-1.19.38-1.72.12-.52.21-.98.29-1.37l.13-.69c-.28-.57-.72-.85-1.32-.85-.24,0-.47.05-.67.14-.2.1-.38.22-.53.38-.15.16-.27.34-.37.55-.1.21-.17.43-.21.65-.08.48-.15.89-.21,1.23-.05.35-.11.67-.15.97-.04.3-.09.6-.14.9-.05.31-.11.65-.18,1.04-.11.57-.22,1.17-.33,1.79-.1.57-.19,1.15-.27,1.74-.14.24-.29.47-.45.7-.44.61-.92,1.2-1.44,1.75-.51.55-1.05,1.07-1.62,1.55-.56.49-1.11.96-1.66,1.4.25-.34.46-.68.63-1.04.18-.35.32-.69.43-1.02.11-.32.19-.62.24-.89.05-.26.07-.48.07-.66,0-.37-.06-.74-.18-1.09-.12-.36-.29-.68-.51-.96-.21-.28-.47-.51-.77-.69-.3-.17-.63-.26-.99-.26-.4,0-.86.12-1.39.35-.52.24-1.06.57-1.61.98-.55.42-1.09.91-1.62,1.47-.54.57-1.01,1.18-1.42,1.84.13-.46.26-.92.4-1.39.14-.47.27-.93.4-1.36.13-.44.25-.84.37-1.21.11-.37.21-.67.29-.91.12-.4.26-.84.42-1.32.15-.48.29-.97.43-1.46.13-.49.25-.97.34-1.43.09-.47.14-.88.14-1.25,0-.27-.03-.49-.09-.67-.06-.19-.14-.33-.23-.44-.1-.11-.2-.19-.31-.24-.12-.04-.23-.06-.35-.06-.24,0-.46.03-.66.08-.2.06-.39.18-.56.36-.18.18-.34.43-.5.76-.16.33-.32.77-.48,1.32-.11.37-.23.81-.35,1.31-.13.5-.25,1.04-.38,1.6s-.25,1.13-.36,1.7c-.12.57-.22,1.1-.32,1.61-.24,1.26-.43,2.38-.58,3.37-.15.98-.29,1.88-.41,2.71-.04.23-.07.44-.08.61-.02.18-.03.35-.03.51,0,.21.03.45.08.72.04.2.13.33.25.4.11.07.26.12.43.16l-.07.42c0,.29.07.55.21.79s.32.44.52.6c.2.17.42.3.65.38.23.09.44.13.61.13.37,0,.82-.09,1.35-.27s1.1-.41,1.7-.7c.61-.29,1.23-.62,1.88-.98.64-.37,1.26-.74,1.85-1.12.6-.38,1.15-.75,1.66-1.1.51-.36.93-.68,1.27-.94.62-.49,1.18-1,1.69-1.52.28-.3.55-.59.79-.89v.12c0,.89.11,1.66.34,2.32.22.66.53,1.21.92,1.64.39.44.85.76,1.37.97.53.22,1.09.32,1.69.32.45,0,.9-.07,1.35-.22.45-.14.89-.33,1.31-.57.43-.23.83-.49,1.21-.8.37-.3.71-.6,1.01-.9l.43-.43v.03c0,.37.08.74.24,1.11.16.37.37.71.63,1.01.27.29.58.54.93.72.35.19.71.28,1.1.28.46,0,.92-.02,1.37-.08s.89-.14,1.32-.26c.42-.11.83-.25,1.22-.42.38-.18.74-.38,1.05-.62.4-.29.79-.64,1.18-1.04.38-.4.72-.84,1.02-1.31.3-.47.54-.97.73-1.48.18-.52.27-1.04.27-1.56v-.3c-.01-.13-.02-.26-.03-.4-.01-.14-.03-.27-.07-.39-.03-.13-.07-.23-.12-.3.24.1.48.2.74.28.26.09.52.16.78.22.27.05.53.1.78.13.26.03.5.05.73.05.79,0,1.46-.07,2.02-.22.04-.01.09-.02.13-.04-.14.22-.29.46-.44.71-.22.37-.42.75-.6,1.13-.18.38-.33.75-.44,1.1s-.17.66-.17.92c0,.12,0,.28.04.46.02.18.06.37.12.57.07.2.15.4.25.6.11.2.24.38.4.54.16.16.35.29.56.39.22.1.47.15.75.15.52,0,1.05-.09,1.62-.27.56-.19,1.11-.42,1.66-.71.55-.29,1.08-.61,1.59-.97s.96-.72,1.37-1.08c-.02.57-.07,1.14-.13,1.71s-.14,1.11-.25,1.63c-.1.51-.23.98-.37,1.4-.15.42-.32.77-.51,1.05-.17.25-.34.49-.51.71-.17.22-.36.41-.58.57-.21.17-.46.29-.74.39-.28.09-.62.14-1.02.14-.17,0-.37-.04-.63-.11-.25-.07-.52-.16-.81-.28-.29-.12-.58-.25-.89-.41-.3-.15-.59-.31-.86-.48-.29-.19-.6-.34-.92-.46-.32-.11-.63-.17-.92-.17-.38,0-.65.07-.79.22-.14.14-.21.34-.21.6,0,.09.09.24.27.44.17.2.42.43.72.68.31.26.66.52,1.05.8.4.27.81.53,1.24.75.43.23.86.42,1.29.57.44.14.84.22,1.23.22.47,0,.9-.04,1.3-.12.39-.08.76-.19,1.09-.32.33-.14.64-.3.93-.49.28-.19.55-.4.79-.62.92-.84,1.61-1.95,2.06-3.32.46-1.38.69-3.08.69-5.1v-1.28c.01-.36.01-.66.02-.9.03-.78.06-1.44.12-1.98.05-.55.1-1,.16-1.36.05-.36.1-.65.14-.86.04-.21.06-.37.06-.49,0-.48-.22-.87-.64-1.19Zm-41.06,6.55c-.18.51-.4,1.01-.67,1.53-.26.51-.55.99-.86,1.44-.32.45-.61.8-.88,1.06-.1.1-.28.22-.52.38-.24.15-.51.3-.81.45-.3.15-.61.27-.94.38-.32.1-.62.16-.89.16-.15,0-.27-.06-.38-.17-.11-.12-.21-.26-.3-.42.13-.43.32-.91.56-1.43.25-.52.54-1.04.87-1.57.33-.53.69-1.04,1.07-1.54s.77-.94,1.18-1.32c.4-.39.8-.7,1.2-.93.4-.23.78-.35,1.14-.35.07,0,.14.03.2.09.07.06.12.14.16.24.04.1.08.21.1.33s.04.25.04.38c0,.36-.09.79-.27,1.29Zm24.75-1.43c0,.06,0,.16-.02.3-.01.13-.03.28-.06.45-.02.16-.06.32-.11.48-.04.16-.1.29-.16.38-.11.18-.24.37-.38.56-.14.19-.28.37-.43.55-.14.17-.29.34-.44.49-.14.15-.29.28-.44.39-.31.24-.58.44-.81.6-.22.15-.44.28-.66.37-.22.1-.46.16-.71.2s-.57.05-.94.05c-.15,0-.28-.03-.39-.1-.11-.08-.19-.17-.26-.29-.06-.11-.11-.24-.14-.38-.04-.14-.05-.28-.05-.42,0-.34.03-.69.1-1.07.06-.38.16-.7.29-.96.14-.28.29-.54.43-.78.13-.24.27-.46.42-.68.14-.21.28-.42.44-.62.15-.2.31-.4.48-.62.14-.17.28-.35.43-.55.15-.19.3-.37.44-.54.14-.17.27-.32.39-.43.12-.11.21-.16.28-.16.01,0,.04.02.08.07.04.05.12.11.22.19.11.07.25.15.43.23.18.09.41.17.69.24.19.05.34.15.46.29.11.14.2.31.27.5.06.19.1.4.12.62.02.22.03.43.03.63h0Zm14.21-2.71c-.01.29-.02.58-.03.88-.02.3-.04.6-.06.9-.02.29-.04.57-.07.81-.02.25-.05.46-.08.63-.03.17-.07.28-.1.33-.24.19-.49.38-.75.58-.27.19-.53.38-.79.55-.27.18-.52.34-.77.48-.25.14-.47.26-.67.35-.19.09-.41.2-.65.31-.24.12-.48.22-.73.31-.24.09-.48.16-.71.22-.23.07-.44.1-.63.1-.05,0-.08-.03-.09-.07,0-.05-.02-.09-.02-.14.05-.3.15-.64.3-1,.15-.37.32-.73.52-1.09.2-.36.41-.7.62-1.01.21-.32.4-.58.55-.78.25-.32.54-.66.85-1.03.32-.37.66-.7,1.01-1.01.36-.3.72-.56,1.1-.76.38-.2.75-.3,1.12-.3h.09c0,.21,0,.46-.01.74Z"/>
  </g>
</svg>